<?xml version="1.0" standalone="no"?>
<!DOCTYPE svg PUBLIC "-//W3C//DTD SVG 20010904//EN"
 "http://www.w3.org/TR/2001/REC-SVG-20010904/DTD/svg10.dtd">
<svg version="1.0" xmlns="http://www.w3.org/2000/svg"
 width="700.000000pt" height="700.000000pt" viewBox="0 0 700.000000 700.000000"
 preserveAspectRatio="xMidYMid meet">
<metadata>
Created by potrace 1.14, written by Peter Selinger 2001-2017
</metadata>
<g transform="translate(0.000000,700.000000) scale(0.100000,-0.100000)"
fill="#000000" stroke="none">
<path d="M1365 6924 c-6 -1 -44 -4 -85 -7 -96 -5 -155 -32 -233 -109 -85 -84
-107 -139 -112 -280 -4 -115 -6 -5795 -2 -6054 l2 -141 36 -54 c81 -119 167
-183 270 -198 68 -11 4372 -7 4508 3 53 4 86 13 116 31 61 35 137 123 175 201
l32 68 -1 2490 c-1 1370 -4 2572 -7 2671 -4 152 -7 185 -24 221 -26 53 -132
164 -525 554 -471 468 -550 541 -628 583 l-52 27 -1730 -1 c-952 -2 -1735 -4
-1740 -5z m3273 -696 c1 -623 5 -661 66 -702 40 -25 106 -29 614 -30 l473 -1
-4 -2530 c-2 -1392 -7 -2543 -11 -2560 -4 -16 -12 -35 -18 -43 -9 -11 -386
-13 -2182 -11 -1194 1 -2208 5 -2254 9 -45 3 -87 11 -93 17 -17 17 -19 336
-19 3083 0 2565 2 3015 16 3104 10 71 15 75 102 78 42 2 804 4 1693 6 l1616 3
1 -423z m370 190 c274 -261 632 -617 632 -629 0 -13 -710 -8 -711 5 -1 6 -2
148 -4 316 -2 288 1 370 12 370 3 0 35 -28 71 -62z"/>
<path d="M3190 4344 c-64 -14 -204 -75 -249 -110 -159 -125 -265 -292 -298
-471 -9 -51 -10 -186 -1 -246 35 -240 253 -498 479 -567 87 -26 214 -33 297
-15 218 47 402 185 402 301 0 95 -114 164 -199 119 -16 -8 -52 -35 -82 -60
-71 -60 -144 -87 -239 -87 -224 -1 -378 165 -385 417 -2 80 18 182 47 239 30
60 111 139 172 169 52 26 144 46 182 41 75 -10 101 -17 144 -39 27 -14 64 -38
82 -53 58 -49 91 -65 130 -64 104 4 161 100 120 202 -32 79 -239 201 -382 225
-77 13 -152 13 -220 -1z"/>
<path d="M4109 4312 c-49 -6 -109 -79 -109 -132 0 -29 98 -283 287 -740 46
-113 90 -218 98 -235 7 -16 24 -55 38 -85 80 -181 87 -189 159 -195 73 -6 102
15 146 107 50 104 132 302 277 668 182 457 195 505 151 557 -51 60 -129 75
-186 35 -22 -16 -85 -127 -117 -207 -158 -399 -243 -609 -252 -618 -9 -9 -43
65 -193 428 -131 317 -162 381 -192 397 -28 15 -76 24 -107 20z"/>
<path d="M1983 2350 c-81 -5 -94 -8 -114 -30 -30 -35 -48 -79 -43 -110 9 -54
14 -66 44 -98 l30 -34 1558 1 c856 0 1575 0 1597 1 51 0 111 51 120 102 13 73
-31 149 -95 164 -31 8 -2969 11 -3097 4z"/>
<path d="M1883 1458 c-60 -62 -73 -130 -37 -185 26 -41 57 -53 150 -58 121 -6
2940 -6 3032 0 83 6 113 21 136 70 20 42 20 74 0 124 -17 43 -41 57 -114 67
-25 4 -740 9 -1590 11 l-1545 4 -32 -33z"/>
</g>
</svg>
